<svg width="100%" height="fit-content" viewBox="0 0 173 24" xmlns="http://www.w3.org/2000/svg">
    <path d="M5.27189 23.32C3.58656 23.32 2.29589 22.84 1.39989 21.88C0.525224 20.92 0.0878906 19.5653 0.0878906 17.816V5.784C0.0878906 4.03467 0.525224 2.68 1.39989 1.72C2.29589 0.759999 3.58656 0.279999 5.27189 0.279999C6.95722 0.279999 8.23722 0.759999 9.11189 1.72C10.0079 2.68 10.4559 4.03467 10.4559 5.784V8.152H7.12789V5.56C7.12789 4.17333 6.54122 3.48 5.36789 3.48C4.19456 3.48 3.60789 4.17333 3.60789 5.56V18.072C3.60789 19.4373 4.19456 20.12 5.36789 20.12C6.54122 20.12 7.12789 19.4373 7.12789 18.072V14.648H10.4559V17.816C10.4559 19.5653 10.0079 20.92 9.11189 21.88C8.23722 22.84 6.95722 23.32 5.27189 23.32Z" />
    <path d="M12.5619 0.599998H16.0819V9.72H19.8579V0.599998H23.3779V23H19.8579V12.92H16.0819V23H12.5619V0.599998Z" />
    <path d="M25.9994 0.599998H31.2154C33.0287 0.599998 34.3514 1.02667 35.1834 1.88C36.0154 2.712 36.4314 4.00267 36.4314 5.752V7.128C36.4314 9.45333 35.6634 10.9253 34.1274 11.544V11.608C34.9807 11.864 35.5781 12.3867 35.9194 13.176C36.2821 13.9653 36.4634 15.0213 36.4634 16.344V20.28C36.4634 20.92 36.4847 21.4427 36.5274 21.848C36.5701 22.232 36.6767 22.616 36.8474 23H33.2634C33.1354 22.6373 33.0501 22.296 33.0074 21.976C32.9647 21.656 32.9434 21.08 32.9434 20.248V16.152C32.9434 15.128 32.7727 14.4133 32.4314 14.008C32.1114 13.6027 31.5461 13.4 30.7354 13.4H29.5194V23H25.9994V0.599998ZM30.7994 10.2C31.5034 10.2 32.0261 10.0187 32.3674 9.656C32.7301 9.29333 32.9114 8.68533 32.9114 7.832V6.104C32.9114 5.29333 32.7621 4.70667 32.4634 4.344C32.1861 3.98133 31.7381 3.8 31.1194 3.8H29.5194V10.2H30.7994Z" />
    <path d="M38.9056 0.599998H42.4256V23H38.9056V0.599998Z" />
    <path d="M49.6379 23.32C47.9312 23.32 46.6406 22.84 45.7659 21.88C44.8912 20.8987 44.4539 19.5013 44.4539 17.688V16.408H47.7819V17.944C47.7819 19.3947 48.3899 20.12 49.6059 20.12C50.2032 20.12 50.6512 19.9493 50.9499 19.608C51.2699 19.2453 51.4299 18.6693 51.4299 17.88C51.4299 16.9413 51.2166 16.12 50.7899 15.416C50.3632 14.6907 49.5739 13.8267 48.4219 12.824C46.9712 11.544 45.9579 10.392 45.3819 9.368C44.8059 8.32267 44.5179 7.14933 44.5179 5.848C44.5179 4.07733 44.9659 2.712 45.8619 1.752C46.7579 0.770665 48.0592 0.279999 49.7659 0.279999C51.4512 0.279999 52.7206 0.770665 53.5739 1.752C54.4486 2.712 54.8859 4.09867 54.8859 5.912V6.84H51.5579V5.688C51.5579 4.92 51.4086 4.36533 51.1099 4.024C50.8112 3.66133 50.3739 3.48 49.7979 3.48C48.6246 3.48 48.0379 4.19467 48.0379 5.624C48.0379 6.43467 48.2512 7.192 48.6779 7.896C49.1259 8.6 49.9259 9.45333 51.0779 10.456C52.5499 11.736 53.5632 12.8987 54.1179 13.944C54.6726 14.9893 54.9499 16.216 54.9499 17.624C54.9499 19.4587 54.4912 20.8667 53.5739 21.848C52.6779 22.8293 51.3659 23.32 49.6379 23.32Z" />
    <path d="M59.7201 3.8H56.0401V0.599998H66.9201V3.8H63.2401V23H59.7201V3.8Z" />
    <path d="M68.6244 0.599998H72.1444V23H68.6244V0.599998Z" />
    <path d="M77.5006 0.599998H82.2686L85.9166 23H82.3966L81.7566 18.552V18.616H77.7566L77.1166 23H73.8526L77.5006 0.599998ZM81.3406 15.576L79.7726 4.504H79.7086L78.1726 15.576H81.3406Z" />
    <path d="M87.6244 0.599998H92.0404L95.4644 14.008H95.5284V0.599998H98.6644V23H95.0484L90.8244 6.648H90.7604V23H87.6244V0.599998Z" />
    <path d="M105.574 0.599998H108.966L110.534 17.816H110.598L112.262 0.599998H116.102L117.766 17.816H117.83L119.398 0.599998H122.438L120.166 23H115.782L114.182 7.896H114.118L112.518 23H107.846L105.574 0.599998Z" />
    <path d="M124.218 0.599998H127.738V23H124.218V0.599998Z" />
    <path d="M131.206 23.128C130.566 23.128 130.022 23.0853 129.574 23V19.8C129.916 19.8853 130.3 19.928 130.726 19.928C131.43 19.928 131.953 19.7573 132.294 19.416C132.636 19.0533 132.806 18.5093 132.806 17.784V0.599998H136.326V17.688C136.326 19.5227 135.9 20.888 135.046 21.784C134.214 22.68 132.934 23.128 131.206 23.128Z" />
    <path d="M141.501 0.599998H146.269L149.917 23H146.397L145.757 18.552V18.616H141.757L141.117 23H137.853L141.501 0.599998ZM145.341 15.576L143.773 4.504H143.709L142.173 15.576H145.341Z" />
    <path d="M153.388 13.464L149.132 0.599998H152.876L155.276 8.824H155.34L157.74 0.599998H161.164L156.908 13.464V23H153.388V13.464Z" />
    <path d="M164.001 0.599998H168.769L172.417 23H168.897L168.257 18.552V18.616H164.257L163.617 23H160.353L164.001 0.599998ZM167.841 15.576L166.273 4.504H166.209L164.673 15.576H167.841Z" />
</svg>